<svg width="148" height="42" viewBox="0 0 148 42" fill="none" xmlns="http://www.w3.org/2000/svg">
<path d="M29.75 6.4L19.8 41H10.85L0.55 6.4H8.4L15.45 34.9L22.25 6.4H29.75ZM39.9691 14.5V41H32.8691V14.5H39.9691ZM36.3691 0.849998C37.6358 0.849998 38.6691 1.25 39.4691 2.05C40.3025 2.81666 40.7191 3.8 40.7191 5C40.7191 6.2 40.3025 7.2 39.4691 8C38.6691 8.76667 37.6358 9.15 36.3691 9.15C35.1025 9.15 34.0691 8.76667 33.2691 8C32.4691 7.2 32.0691 6.2 32.0691 5C32.0691 3.8 32.4691 2.81666 33.2691 2.05C34.0691 1.25 35.1025 0.849998 36.3691 0.849998ZM53.5805 41.8C51.4138 41.8 49.7305 41.1833 48.5305 39.95C47.3305 38.6833 46.7305 36.9 46.7305 34.6V3.95L53.8305 3.15V34.4C53.8305 35.5667 54.3138 36.15 55.2805 36.15C55.8138 36.15 56.2805 36.05 56.6805 35.85L58.1305 40.9C56.7638 41.5 55.2471 41.8 53.5805 41.8ZM90.4254 13.7C92.5254 13.7 94.2087 14.4167 95.4754 15.85C96.7754 17.2833 97.4254 19.2333 97.4254 21.7V41H90.3254V22.9C90.3254 20.3 89.4587 19 87.7254 19C86.7921 19 85.9754 19.3 85.2754 19.9C84.5754 20.5 83.8587 21.4333 83.1254 22.7V41H76.0254V22.9C76.0254 20.3 75.1587 19 73.4254 19C72.4921 19 71.6754 19.3167 70.9754 19.95C70.2754 20.55 69.5754 21.4667 68.8754 22.7V41H61.7754V14.5H67.9254L68.4754 17.8C69.4754 16.4667 70.5921 15.45 71.8254 14.75C73.0921 14.05 74.5421 13.7 76.1754 13.7C77.6754 13.7 78.9754 14.0833 80.0754 14.85C81.1754 15.5833 81.9754 16.6333 82.4754 18C83.5754 16.5667 84.7587 15.5 86.0254 14.8C87.3254 14.0667 88.7921 13.7 90.4254 13.7ZM124.408 33.65C124.408 34.6833 124.558 35.45 124.858 35.95C125.158 36.4167 125.658 36.7667 126.358 37L124.858 41.7C123.292 41.5667 122.008 41.2 121.008 40.6C120.042 40 119.292 39.0667 118.758 37.8C117.025 40.4667 114.375 41.8 110.808 41.8C108.175 41.8 106.075 41.05 104.508 39.55C102.975 38.0167 102.208 36.0333 102.208 33.6C102.208 30.7 103.258 28.4833 105.358 26.95C107.458 25.4167 110.475 24.65 114.408 24.65H117.458V23.35C117.458 21.7167 117.092 20.5833 116.358 19.95C115.625 19.3167 114.408 19 112.708 19C110.842 19 108.508 19.4667 105.708 20.4L104.108 15.65C107.408 14.35 110.675 13.7 113.908 13.7C117.508 13.7 120.158 14.4833 121.858 16.05C123.558 17.5833 124.408 19.8833 124.408 22.95V33.65ZM112.758 36.7C114.758 36.7 116.325 35.7167 117.458 33.75V28.7H115.108C111.275 28.7 109.358 30.1333 109.358 33C109.358 34.1667 109.642 35.0833 110.208 35.75C110.808 36.3833 111.658 36.7 112.758 36.7ZM145.202 13.75C146.002 13.75 146.885 13.8833 147.852 14.15L146.652 21C145.719 20.7667 144.935 20.65 144.302 20.65C142.735 20.65 141.519 21.2 140.652 22.3C139.785 23.4 139.102 25.0667 138.602 27.3V41H131.502V14.5H137.652L138.302 19.65C138.935 17.7833 139.852 16.3333 141.052 15.3C142.285 14.2667 143.669 13.75 145.202 13.75Z" fill="black"/>
</svg>
